<?xml version="1.0" ?>
<svg
  width="80" height="80"
  enable-background="new 0 0 24 24"
  id="Layer_1" version="1.1"
  viewBox="0 0 24 24" xml:space="preserve" xmlns="http://www.w3.org/2000/svg" xmlns:xlink="http://www.w3.org/1999/xlink">
  <g>
    <polyline fill="none" points="   22.5,10.9999828 22.5,5.4999824 18.5505943,3.6193132  " stroke="#FADF02" stroke-linecap="round" stroke-linejoin="round" stroke-miterlimit="10"/><polyline fill="none" points="   5.5610518,3.5661483 1.5,5.4999824 1.5,10.9999828  " stroke="#FADF02" stroke-linecap="round" stroke-linejoin="round" stroke-miterlimit="10"/><polyline fill="none" points="   16.5291309,2.6567111 12,0.4999825 7.5004086,2.6426451  " stroke="#FADF02" stroke-linecap="round" stroke-linejoin="round" stroke-miterlimit="10"/><polyline fill="none" points="   18.5505943,20.3806877 22.5,18.5000172 22.5,12.9999828  " stroke="#FADF02" stroke-linecap="round" stroke-linejoin="round" stroke-miterlimit="10"/><polyline fill="none" points="   1.5,12.9999828 1.5,18.5000172 5.5610518,20.4338512  " stroke="#FADF02" stroke-linecap="round" stroke-linejoin="round" stroke-miterlimit="10"/><polyline fill="none" points="   7.5004086,21.3573551 12,23.5000172 16.5291309,21.3432884  " stroke="#FADF02" stroke-linecap="round" stroke-linejoin="round" stroke-miterlimit="10"/><polyline fill="none" points="   20.5,14.9619341 20.5,17.2372875 18.5593262,18.1613598  " stroke="#FADF02" stroke-linecap="round" stroke-linejoin="round" stroke-miterlimit="10"/><polyline fill="none" points="   18.5533695,5.8357697 20.5,6.7626777 20.5,9.0371256  " stroke="#FADF02" stroke-linecap="round" stroke-linejoin="round" stroke-miterlimit="10"/><polyline fill="none" points="   9.7581778,3.7827818 12,2.7153146 14.2612314,3.7920234  " stroke="#FADF02" stroke-linecap="round" stroke-linejoin="round" stroke-miterlimit="10"/><polyline fill="none" points="   3.5,9.0379324 3.5,6.7626777 5.5051517,5.8079042  " stroke="#FADF02" stroke-linecap="round" stroke-linejoin="round" stroke-miterlimit="10"/><polyline fill="none" points="   5.5608788,18.2185955 3.5,17.2372875 3.5,14.9648781  " stroke="#FADF02" stroke-linecap="round" stroke-linejoin="round" stroke-miterlimit="10"/><polyline fill="none" points="   14.2042179,20.2350883 12,21.2846508 9.7581778,20.2171841  " stroke="#FADF02" stroke-linecap="round" stroke-linejoin="round" stroke-miterlimit="10"/><polyline fill="none" points="   10.5,3.4999826 11.0117645,7.4806342 8.3052979,8.9050121 5.0357585,6.0314107  " stroke="#FADF02" stroke-linecap="round" stroke-linejoin="round" stroke-miterlimit="10"/><polyline fill="none" points="   18.964241,6.0314107 15.5177813,8.8114939 13,7.4806342 13.5,3.4999826  " stroke="#FADF02" stroke-linecap="round" stroke-linejoin="round" stroke-miterlimit="10"/><polyline fill="none" points="   20.5,15.4018993 16.5,13.7411594 16.5,10.2823353 20.5,8.5980663  " stroke="#FADF02" stroke-linecap="round" stroke-linejoin="round" stroke-miterlimit="10"/><polyline fill="none" points="   13.5,20.4999828 13.0117645,16.519331 15.522233,15.1864605 18.9631767,17.9690609  " stroke="#FADF02" stroke-linecap="round" stroke-linejoin="round" stroke-miterlimit="10"/><polyline fill="none" points="   5.0342336,17.9678288 8.4777679,15.1864605 10.9882355,16.519331 10.5,20.4999828  " stroke="#FADF02" stroke-linecap="round" stroke-linejoin="round" stroke-miterlimit="10"/><polyline fill="none" points="   3.5,8.5980663 7.5,10.2352762 7.5,13.776453 3.5,15.4018993  " stroke="#FADF02" stroke-linecap="round" stroke-linejoin="round" stroke-miterlimit="10"/></g><g/><g/><g/><g/><g/><g/><g/><g/><g/><g/><g/><g/><g/><g/><g/></svg>